# xmcd
#
# Track frame offsets:
#	150
#	22227
#	38095
#	71430
#	95337
#	132852
#	154670
#	181982
#	209815
#	229787
#
# Disc length: 3368 seconds
#
# Revision: 1
# Processed by: cddbd v1.5.2PL0 Copyright (c) Steve Scherf et al.
# Submitted via: EasyCDDAExtractor 15.3.0.1
#
DISCID=870d260a
DTITLE=Various Artist - VAFACO - Giot Tinh Xanh
DYEAR=1999
DGENRE=Vietnamese
TTITLE0=Bang Kieu - Noi Nho Diu Em
TTITLE1=Thu Phuong - Song Ve Dau
TTITLE2=Kim Thoa and Bao Phuc - Goc Pho Chieu Co Don
TTITLE3=Hong Nhung - Sai Gon Dem Mua
TTITLE4=Tik Tik Tak - LK: Thi Tham Mua Xuan, Mua Ngau, De Gio Dua Vao Lang Que
TTITLE4=n
TTITLE5=Kim Thoa - Giot Tinh Xanh
TTITLE6=Bao Phuc - Em Biet Khong Em
TTITLE7=Hong Nhung - Ngay Xua Tieng Vi Cam
TTITLE8=Tran Thu Ha - Em Di Bo Mac Con Duong
TTITLE9=Bao Phuc - Tuoi Mua Trang
EXTD=
EXTT0=
EXTT1=
EXTT2=
EXTT3=
EXTT4=
EXTT5=
EXTT6=
EXTT7=
EXTT8=
EXTT9=
PLAYORDER=
